<svg width="167" height="57" viewBox="0 0 167 57" fill="none" xmlns="http://www.w3.org/2000/svg">
<path d="M69.296 40V21.824H62.128V17.6H81.648V21.824H74.48V40H69.296ZM90.5273 40.256C88.6926 40.256 87.0606 39.872 85.6313 39.104C84.2233 38.336 83.1033 37.2907 82.2713 35.968C81.4606 34.624 81.0553 33.0987 81.0553 31.392C81.0553 29.664 81.4606 28.1387 82.2713 26.816C83.1033 25.472 84.2233 24.4267 85.6313 23.68C87.0606 22.912 88.6926 22.528 90.5273 22.528C92.3406 22.528 93.9619 22.912 95.3913 23.68C96.8206 24.4267 97.9406 25.4613 98.7513 26.784C99.5619 28.1067 99.9673 29.6427 99.9673 31.392C99.9673 33.0987 99.5619 34.624 98.7513 35.968C97.9406 37.2907 96.8206 38.336 95.3913 39.104C93.9619 39.872 92.3406 40.256 90.5273 40.256ZM90.5273 36.16C91.3593 36.16 92.1059 35.968 92.7673 35.584C93.4286 35.2 93.9513 34.656 94.3353 33.952C94.7193 33.2267 94.9113 32.3733 94.9113 31.392C94.9113 30.3893 94.7193 29.536 94.3353 28.832C93.9513 28.128 93.4286 27.584 92.7673 27.2C92.1059 26.816 91.3593 26.624 90.5273 26.624C89.6953 26.624 88.9486 26.816 88.2873 27.2C87.6259 27.584 87.0926 28.128 86.6873 28.832C86.3033 29.536 86.1113 30.3893 86.1113 31.392C86.1113 32.3733 86.3033 33.2267 86.6873 33.952C87.0926 34.656 87.6259 35.2 88.2873 35.584C88.9486 35.968 89.6953 36.16 90.5273 36.16ZM103.656 40V17.6H113.832C116.264 17.6 118.408 18.0693 120.264 19.008C122.12 19.9253 123.571 21.216 124.616 22.88C125.661 24.544 126.184 26.5173 126.184 28.8C126.184 31.0613 125.661 33.0347 124.616 34.72C123.571 36.384 122.12 37.6853 120.264 38.624C118.408 39.5413 116.264 40 113.832 40H103.656ZM108.84 35.744H113.576C115.069 35.744 116.36 35.4667 117.448 34.912C118.557 34.336 119.411 33.5253 120.008 32.48C120.627 31.4347 120.936 30.208 120.936 28.8C120.936 27.3707 120.627 26.144 120.008 25.12C119.411 24.0747 118.557 23.2747 117.448 22.72C116.36 22.144 115.069 21.856 113.576 21.856H108.84V35.744ZM138.286 40.256C136.323 40.256 134.595 39.872 133.102 39.104C131.63 38.336 130.488 37.2907 129.678 35.968C128.867 34.624 128.462 33.0987 128.462 31.392C128.462 29.664 128.856 28.1387 129.646 26.816C130.456 25.472 131.555 24.4267 132.942 23.68C134.328 22.912 135.896 22.528 137.646 22.528C139.331 22.528 140.846 22.8907 142.19 23.616C143.555 24.32 144.632 25.344 145.422 26.688C146.211 28.0107 146.606 29.6 146.606 31.456C146.606 31.648 146.595 31.872 146.574 32.128C146.552 32.3627 146.531 32.5867 146.51 32.8H132.526V29.888H143.885L141.966 30.752C141.966 29.856 141.784 29.0773 141.422 28.416C141.059 27.7547 140.558 27.2427 139.918 26.88C139.278 26.496 138.531 26.304 137.678 26.304C136.824 26.304 136.067 26.496 135.406 26.88C134.766 27.2427 134.264 27.7653 133.902 28.448C133.539 29.1093 133.358 29.8987 133.358 30.816V31.584C133.358 32.5227 133.56 33.3547 133.966 34.08C134.392 34.784 134.979 35.328 135.726 35.712C136.494 36.0747 137.39 36.256 138.414 36.256C139.331 36.256 140.131 36.1173 140.814 35.84C141.518 35.5627 142.158 35.1467 142.734 34.592L145.39 37.472C144.6 38.368 143.608 39.0613 142.414 39.552C141.219 40.0213 139.843 40.256 138.286 40.256ZM154.289 40L147.056 22.784H152.209L158.225 37.6H155.665L161.905 22.784H166.705L159.441 40H154.289Z" fill="white"/>
<g clip-path="url(#clip0_1_17)">
<path d="M20.3795 27.4535C18.9844 28.8451 16.7299 28.8451 15.3348 27.4535L6.4029 18.5473C5.00893 17.1557 5.00893 14.9068 6.4029 13.5152C7.79799 12.1236 10.0592 12.1236 11.4509 13.5152L17.7567 19.8943L33.192 4.60564C34.5871 3.21515 36.8415 3.21515 38.2366 4.60564C39.6317 5.99724 39.6317 8.25275 38.2366 9.64435L20.3795 27.4535ZM20.3795 52.391C18.9844 53.7826 16.7299 53.7826 15.3348 52.391L1.04598 38.141C-0.348661 36.7494 -0.348661 34.5006 1.04598 33.109C2.44085 31.7174 4.70201 31.7174 6.0971 33.109L17.7567 44.8318L43.9062 18.859C45.3013 17.4674 47.5558 17.4674 48.9509 18.859C50.346 20.2506 50.346 22.4994 48.9509 23.891L20.3795 52.391Z" fill="#C2931B"/>
</g>
<defs>
<clipPath id="clip0_1_17">
<rect width="50" height="57" fill="white"/>
</clipPath>
</defs>
</svg>
