<svg width="100" height="32" viewBox="0 0 100 32" fill="none" xmlns="http://www.w3.org/2000/svg">
<g clip-path="url(#clip0_2_125)">
<path d="M11.4125 15.4125C10.6313 16.1937 9.36875 16.1937 8.5875 15.4125L3.58563 10.4125C2.805 9.63125 2.805 8.36875 3.58563 7.5875C4.36688 6.80625 5.63313 6.80625 6.4125 7.5875L9.94375 11.1687L18.5875 2.58562C19.3688 1.805 20.6313 1.805 21.4125 2.58562C22.1938 3.36687 22.1938 4.63312 21.4125 5.41437L11.4125 15.4125ZM11.4125 29.4125C10.6313 30.1937 9.36875 30.1937 8.5875 29.4125L0.58575 21.4125C-0.19525 20.6312 -0.19525 19.3687 0.58575 18.5875C1.36688 17.8062 2.63313 17.8062 3.41438 18.5875L9.94375 25.1687L24.5875 10.5875C25.3688 9.80625 26.6313 9.80625 27.4125 10.5875C28.1938 11.3687 28.1938 12.6312 27.4125 13.4125L11.4125 29.4125Z" fill="#C2931B"/>
</g>
<path d="M38.56 23V11.64H34.08V9H46.28V11.64H41.8V23H38.56ZM51.8295 23.16C50.6829 23.16 49.6629 22.92 48.7695 22.44C47.8895 21.96 47.1895 21.3067 46.6695 20.48C46.1629 19.64 45.9095 18.6867 45.9095 17.62C45.9095 16.54 46.1629 15.5867 46.6695 14.76C47.1895 13.92 47.8895 13.2667 48.7695 12.8C49.6629 12.32 50.6829 12.08 51.8295 12.08C52.9629 12.08 53.9762 12.32 54.8695 12.8C55.7629 13.2667 56.4629 13.9133 56.9695 14.74C57.4762 15.5667 57.7295 16.5267 57.7295 17.62C57.7295 18.6867 57.4762 19.64 56.9695 20.48C56.4629 21.3067 55.7629 21.96 54.8695 22.44C53.9762 22.92 52.9629 23.16 51.8295 23.16ZM51.8295 20.6C52.3495 20.6 52.8162 20.48 53.2295 20.24C53.6429 20 53.9695 19.66 54.2095 19.22C54.4495 18.7667 54.5695 18.2333 54.5695 17.62C54.5695 16.9933 54.4495 16.46 54.2095 16.02C53.9695 15.58 53.6429 15.24 53.2295 15C52.8162 14.76 52.3495 14.64 51.8295 14.64C51.3095 14.64 50.8429 14.76 50.4295 15C50.0162 15.24 49.6829 15.58 49.4295 16.02C49.1895 16.46 49.0695 16.9933 49.0695 17.62C49.0695 18.2333 49.1895 18.7667 49.4295 19.22C49.6829 19.66 50.0162 20 50.4295 20.24C50.8429 20.48 51.3095 20.6 51.8295 20.6ZM60.035 23V9H66.395C67.915 9 69.255 9.29333 70.415 9.88C71.575 10.4533 72.4817 11.26 73.135 12.3C73.7883 13.34 74.115 14.5733 74.115 16C74.115 17.4133 73.7883 18.6467 73.135 19.7C72.4817 20.74 71.575 21.5533 70.415 22.14C69.255 22.7133 67.915 23 66.395 23H60.035ZM63.275 20.34H66.235C67.1683 20.34 67.975 20.1667 68.655 19.82C69.3483 19.46 69.8817 18.9533 70.255 18.3C70.6417 17.6467 70.835 16.88 70.835 16C70.835 15.1067 70.6417 14.34 70.255 13.7C69.8817 13.0467 69.3483 12.5467 68.655 12.2C67.975 11.84 67.1683 11.66 66.235 11.66H63.275V20.34ZM81.6784 23.16C80.4518 23.16 79.3718 22.92 78.4384 22.44C77.5184 21.96 76.8051 21.3067 76.2984 20.48C75.7918 19.64 75.5384 18.6867 75.5384 17.62C75.5384 16.54 75.7851 15.5867 76.2784 14.76C76.7851 13.92 77.4718 13.2667 78.3384 12.8C79.2051 12.32 80.1851 12.08 81.2784 12.08C82.3318 12.08 83.2784 12.3067 84.1184 12.76C84.9718 13.2 85.6451 13.84 86.1384 14.68C86.6318 15.5067 86.8784 16.5 86.8784 17.66C86.8784 17.78 86.8718 17.92 86.8584 18.08C86.8451 18.2267 86.8318 18.3667 86.8184 18.5H78.0784V16.68H85.1784L83.9784 17.22C83.9784 16.66 83.8651 16.1733 83.6384 15.76C83.4118 15.3467 83.0984 15.0267 82.6984 14.8C82.2984 14.56 81.8318 14.44 81.2984 14.44C80.7651 14.44 80.2918 14.56 79.8784 14.8C79.4784 15.0267 79.1651 15.3533 78.9384 15.78C78.7118 16.1933 78.5984 16.6867 78.5984 17.26V17.74C78.5984 18.3267 78.7251 18.8467 78.9784 19.3C79.2451 19.74 79.6118 20.08 80.0784 20.32C80.5584 20.5467 81.1184 20.66 81.7584 20.66C82.3318 20.66 82.8318 20.5733 83.2584 20.4C83.6984 20.2267 84.0984 19.9667 84.4584 19.62L86.1184 21.42C85.6251 21.98 85.0051 22.4133 84.2584 22.72C83.5118 23.0133 82.6518 23.16 81.6784 23.16ZM91.6803 23L87.1603 12.24H90.3803L94.1403 21.5H92.5403L96.4403 12.24H99.4403L94.9003 23H91.6803Z" fill="white"/>
<defs>
<clipPath id="clip0_2_125">
<rect width="28" height="32" fill="white"/>
</clipPath>
</defs>
</svg>
